<?xml version="1.0" encoding="UTF-8"?>
<svg xmlns="http://www.w3.org/2000/svg" viewBox="0 0 48 48" width="48px" height="48px">
  <path fill="#E43225" d="M42.2,15.3c0-0.5-0.4-0.8-0.8-0.8H8c-0.4,0-0.8,0.4-0.8,0.8v1.1c0,0.5,0.4,0.8,0.8,0.8h33.4c0.5,0,0.8-0.4,0.8-0.8V15.3z"/>
  <path fill="#E43225" d="M12.1,21.1C12.1,21.1,12.1,21.1,12.1,21.1c-0.4,0.2-0.8,0.5-0.9,0.9c0,0.1,0,0.1,0,0.2c0,0.1,0,0.3,0,0.4c-0.2,0.9-1.1,1.4-1.9,1.2C8.6,23.6,8,23,8,22.2c0-1,0.8-1.8,1.8-1.8h17.9c1.9,0,3.5,1.6,3.5,3.5S29.7,28,27.7,28h-4.3c-0.1-2-1.7-3.6-3.7-3.6c-2.1,0-3.7,1.7-3.7,3.7c0,2.1,1.7,3.7,3.7,3.7c1.8,0,3.3-1.3,3.7-3h4.3c3,0,5.3-2.4,5.3-5.3s-2.4-5.3-5.3-5.3c0,0,0,0,0,0H12.1z M19.7,27.9c-1,0-1.9-0.8-1.9-1.9c0-1,0.8-1.9,1.9-1.9c1,0,1.9,0.8,1.9,1.9C21.6,27,20.8,27.9,19.7,27.9z"/>
  <path fill="#E43225" d="M42.1,22.8c0-0.2-0.2-0.4-0.4-0.4c0,0,0,0,0,0h-8.3c-0.2,0-0.4,0.2-0.4,0.4c0,0,0,0,0,0v0.6c0,0.2,0.2,0.4,0.4,0.4h8.3c0.2,0,0.4-0.2,0.4-0.4V22.8z"/>
  <path fill="#E43225" d="M14.5,34.4c0-0.1-0.1-0.2-0.2-0.2h-4.6c-0.1,0-0.2,0.1-0.2,0.2l0,0v0.3c0,0.1,0.1,0.2,0.2,0.2h4.6c0.1,0,0.2-0.1,0.2-0.2V34.4z"/>
  <path fill="#E43225" d="M40.1,34.4c0-0.1-0.1-0.2-0.2-0.2h-4.6c-0.1,0-0.2,0.1-0.2,0.2l0,0v0.3c0,0.1,0.1,0.2,0.2,0.2h4.6c0.1,0,0.2-0.1,0.2-0.2V34.4z"/>
  <path fill="#E43225" d="M30.8,31.1c0-0.1-0.1-0.1-0.1-0.1h-2.1c-0.1,0-0.1,0-0.1,0.1l-1.4,3.5c0,0,0,0.1,0,0.1c0,0,0.1,0.1,0.1,0.1h0.5c0.1,0,0.1,0,0.1-0.1l0.4-0.9h3l0.4,0.9c0,0.1,0.1,0.1,0.1,0.1h0.5c0,0,0.1,0,0.1-0.1c0,0,0,0,0-0.1L30.8,31.1z M28.5,33.1l1.1-2.6h0l1.1,2.6H28.5z"/>
  <path fill="#E43225" d="M33.5,30.9h-0.5c-0.1,0-0.1,0.1-0.1,0.1v3.6c0,0.1,0.1,0.1,0.1,0.1h2.9c0.1,0,0.1-0.1,0.1-0.1v-0.4c0-0.1-0.1-0.1-0.1-0.1h-2.3v-3C33.6,31,33.6,30.9,33.5,30.9z"/>
  <path fill="#E43225" d="M23.5,30.9L23.5,30.9c-0.1,0-0.1,0.1-0.1,0.1v3.6c0,0.1,0.1,0.1,0.1,0.1h0.5c0.1,0,0.1-0.1,0.1-0.1V31c0-0.1-0.1-0.1-0.1-0.1H23.5z"/>
  <path fill="#E43225" d="M27.1,34.8L27.1,34.8c0.1,0,0.1-0.1,0.1-0.1v-3.6c0-0.1-0.1-0.1-0.1-0.1h-0.5c-0.1,0-0.1,0.1-0.1,0.1v3.6c0,0.1,0.1,0.1,0.1,0.1H27.1z"/>
  <path fill="#E43225" d="M19.6,34.8L19.6,34.8L19.6,34.8c0.6,0,1.1-0.2,1.4-0.6c0.3-0.3,0.5-0.7,0.5-1.2v-1.9c0-0.1-0.1-0.1-0.1-0.1h-0.5c-0.1,0-0.1,0.1-0.1,0.1v1.9c0,0.2-0.1,0.5-0.2,0.6c-0.2,0.2-0.5,0.3-0.9,0.3c-0.4,0-0.7-0.1-0.9-0.3c-0.2-0.2-0.2-0.4-0.2-0.6v-1.9c0-0.1-0.1-0.1-0.1-0.1h-0.5c-0.1,0-0.1,0.1-0.1,0.1v1.9c0,0.5,0.2,0.8,0.5,1.2C18.4,34.6,18.9,34.8,19.6,34.8z"/>
</svg>