<?xml version="1.0" encoding="UTF-8"?>
<svg xmlns="http://www.w3.org/2000/svg" viewBox="0 0 48 48" width="48px" height="48px">
  <path fill="#FF9900" d="M24.707,20.965c-1.581,1.088-3.404,1.682-5.47,1.682c-2.588,0-4.923-0.956-7.005-2.861 c-0.146-0.135-0.015-0.322,0.16-0.216c2.011,1.169,4.494,1.872,7.061,1.872c1.707,0,3.649-0.373,5.34-1.12 C24.999,20.187,24.936,20.813,24.707,20.965z M25.97,19.499c-0.203-0.261-1.336-0.127-1.85-0.063 c-0.153,0.017-0.176-0.125-0.035-0.218c0.906-0.636,2.399-0.453,2.569-0.235c0.169,0.215-0.041,1.73-0.908,2.454 c-0.131,0.115-0.258,0.054-0.201-0.092C25.674,20.926,26.173,19.763,25.97,19.499"/>
  <path fill="#FF9900" d="M22.631,22.755v-0.627c0-0.099,0.074-0.161,0.161-0.161h2.849c0.09,0,0.163,0.065,0.163,0.161 v0.541c0,0.092-0.077,0.213-0.213,0.404l-1.473,2.104c0.546-0.016,1.123,0.068,1.62,0.35c0.113,0.064,0.142,0.161,0.15,0.253 v0.668c0,0.099-0.103,0.212-0.212,0.153c-0.885-0.465-2.058-0.516-3.029,0.007c-0.102,0.056-0.206-0.056-0.206-0.153v-0.634 c0-0.109,0-0.297,0.116-0.458l1.707-2.446h-1.482C22.705,22.913,22.631,22.851,22.631,22.755M15.5,26.245h-0.868 c-0.082-0.007-0.148-0.066-0.155-0.15v-4.519c0-0.091,0.076-0.161,0.17-0.161h0.808c0.088,0.007,0.155,0.07,0.163,0.161v0.59 h0.015c0.213-0.557,0.604-0.817,1.134-0.817c0.538,0,0.878,0.26,1.116,0.817c0.207-0.557,0.69-0.817,1.198-0.817 c0.365,0,0.764,0.153,1.005,0.493c0.276,0.373,0.219,0.916,0.219,1.398l-0.007,2.859c0,0.091-0.076,0.161-0.17,0.161h-0.861 c-0.09-0.007-0.161-0.076-0.161-0.161v-2.402c0-0.194,0.015-0.668-0.025-0.852c-0.066-0.308-0.266-0.393-0.523-0.393 c-0.219,0-0.444,0.146-0.538,0.373c-0.091,0.233-0.08,0.613-0.08,0.868v2.402c0,0.091-0.076,0.161-0.17,0.161h-0.863 c-0.088-0.007-0.161-0.076-0.161-0.161v-2.402c0-0.503,0.08-1.249-0.548-1.249c-0.633,0-0.612,0.73-0.612,1.249v2.402 C15.658,26.178,15.582,26.245,15.5,26.245 M30.348,20.884c1.269,0,1.954,1.088,1.954,2.469c0,1.337-0.759,2.394-1.954,2.394 c-1.245,0-1.92-1.088-1.92-2.446C28.421,21.941,29.127,20.884,30.348,20.884 M30.348,22.087c-0.633,0-0.673,0.86-0.673,1.398 s-0.022,1.684,0.665,1.684c0.673,0,0.705-0.938,0.705-1.508c0-0.373-0.016-0.825-0.13-1.176 C30.825,22.205,30.611,22.087,30.348,22.087 M33.773,26.245h-0.861c-0.082-0.007-0.155-0.076-0.155-0.161v-4.519 c0-0.082,0.076-0.161,0.161-0.161h0.808c0.08,0.007,0.146,0.066,0.16,0.146v0.694h0.017c0.248-0.616,0.59-0.91,1.191-0.91 c0.392,0,0.778,0.146,1.027,0.53c0.233,0.365,0.233,0.977,0.233,1.417v2.859c-0.01,0.076-0.085,0.135-0.161,0.135h-0.87 c-0.074-0.007-0.142-0.066-0.15-0.135v-2.469c0-0.493,0.059-1.22-0.548-1.22c-0.213,0-0.409,0.146-0.508,0.365 c-0.124,0.275-0.139,0.549-0.139,0.852v2.461C33.926,26.178,33.857,26.245,33.773,26.245 M19.732,24.866 c0,0.339,0.009,0.621-0.161,0.927c-0.139,0.25-0.355,0.402-0.599,0.402c-0.33,0-0.525-0.251-0.525-0.624 c0-0.738,0.661-0.872,1.285-0.872V24.866z M20.607,26.239c-0.057,0.048-0.139,0.057-0.202,0.02 c-0.284-0.233-0.332-0.345-0.488-0.566c-0.468,0.48-0.802,0.621-1.414,0.621c-0.722,0-1.281-0.44-1.281-1.337 c0-0.702,0.38-1.169,0.913-1.402c0.466-0.206,1.117-0.24,1.613-0.3v-0.109c0-0.206,0.017-0.447-0.099-0.624 c-0.099-0.161-0.296-0.226-0.468-0.226c-0.315,0-0.598,0.161-0.668,0.493c-0.015,0.075-0.066,0.146-0.139,0.153l-0.84-0.091 c-0.08-0.017-0.155-0.073-0.139-0.182c0.206-1.088,1.191-1.417,2.075-1.417c0.468,0,1.075,0.126,1.444,0.48 c0.468,0.438,0.424,1.022,0.424,1.658v1.497c0,0.447,0.191,0.646,0.365,0.887c0.066,0.091,0.073,0.2-0.007,0.268 c-0.182,0.153-0.511,0.429-0.69,0.583L20.607,26.239"/>
  <path d="M8.943,31.486H6.648c-0.217-0.015-0.391-0.179-0.423-0.389V21.51c0-0.235,0.197-0.423,0.439-0.423h2.137 c0.222,0.015,0.403,0.182,0.423,0.399v1.327h0.04c0.56-1.491,1.336-2.206,2.662-2.206c1.265,0,2.059,0.754,2.643,2.206 c0.492-1.491,1.629-2.206,2.828-2.206c0.859,0,1.786,0.369,2.361,1.229c0.645,0.93,0.515,2.275,0.515,3.457v6.771 c0,0.235-0.2,0.423-0.439,0.423h-2.132c-0.23-0.015-0.414-0.197-0.414-0.423v-5.891c0-0.467,0.04-1.635-0.063-2.075 c-0.167-0.738-0.671-0.948-1.319-0.948c-0.54,0-1.12,0.369-1.344,0.948c-0.235,0.582-0.2,1.532-0.2,2.075v5.891 c0,0.235-0.199,0.423-0.439,0.423h-2.133c-0.229-0.015-0.414-0.197-0.414-0.423v-5.891c0-1.229,0.2-3.059-1.322-3.059 c-1.542,0-1.483,1.772-1.483,3.059v5.891C9.369,31.266,9.173,31.486,8.943,31.486 M38.608,20.024c3.156,0,4.855,2.714,4.855,6.162 c0,3.332-1.88,5.973-4.855,5.973c-3.11,0-4.785-2.713-4.785-6.089C33.823,22.694,35.565,20.024,38.608,20.024 M38.615,23.006 c-1.577,0-1.678,2.15-1.678,3.49c0,1.349-0.042,4.206,1.661,4.206c1.678,0,1.75-2.332,1.75-3.752c0-0.93-0.042-2.045-0.322-2.928 C39.803,23.298,39.285,23.006,38.615,23.006 M44.911,31.486h-2.124c-0.227-0.015-0.414-0.197-0.414-0.423V21.481 c0.021-0.219,0.206-0.39,0.439-0.39h1.979c0.199,0.02,0.363,0.151,0.404,0.345v1.725h0.04c0.6-1.511,1.437-2.239,2.911-2.239 c0.959,0,1.881,0.345,2.479,1.286c0.56,0.879,0.56,2.351,0.56,3.416v6.909c-0.024,0.193-0.214,0.345-0.414,0.345h-2.144 c-0.196-0.019-0.365-0.165-0.404-0.345v-5.953c0-1.202,0.14-2.969-1.344-2.969c-0.525,0-1.011,0.345-1.25,0.884 c-0.301,0.671-0.345,1.349-0.345,2.085v5.914C45.335,31.266,45.138,31.486,44.911,31.486 M29.851,26.314 c0,0.84,0.019,1.54-0.402,2.29c-0.345,0.62-0.884,1.001-1.489,1.001c-0.828,0-1.311-0.63-1.311-1.55 c0-1.825,1.639-2.16,3.196-2.16V26.314 M32.055,31.465c-0.146,0.125-0.342,0.135-0.499,0.05c-0.699-0.582-0.828-0.85-1.21-1.404 c-1.152,1.176-1.974,1.532-3.49,1.532c-1.786,0-3.175-1.1-3.175-3.312c0-1.725,0.93-2.903,2.266-3.49 c1.152-0.51,2.765-0.6,3.996-0.74v-0.277c0-0.509,0.04-1.108-0.256-1.55c-0.255-0.392-0.738-0.556-1.172-0.556 c-0.786,0-1.489,0.403-1.659,1.229c-0.042,0.195-0.166,0.39-0.343,0.39l-2.095-0.229c-0.176-0.04-0.378-0.184-0.323-0.456 c0.499-2.595,2.855-3.372,4.973-3.372c1.089,0,2.516,0.291,3.381,1.118c1.09,1.018,0.992,2.381,0.992,3.868v3.502 c0,1.054,0.436,1.516,0.847,2.086c0.146,0.215,0.176,0.47-0.043,0.631c-0.437,0.362-1.227,1.033-1.663,1.411L32.055,31.465"/>
</svg>