<?xml version="1.0" encoding="UTF-8"?>
<svg xmlns="http://www.w3.org/2000/svg" viewBox="0 0 48 48" width="48px" height="48px">
  <path fill="#E53238" d="M13,13H8v22h5c3,0,6-1,6-5v-4c0-1.8-0.7-3.8-3-4c2.3-0.2,3-2.2,3-4v-1C19,13.4,15.1,13,13,13z M15,30 c0,1.8-1.2,2-3,2v-6c1.8,0,3,0.2,3,2V30z M15,19c0,1.8-1.2,2-3,2v-5c1.8,0,3,0.2,3,2V19z"/>
  <path fill="#0064D2" d="M36,13H25v22h4v-7h7c2.2,0,4-1.8,4-4v-7C40,14.8,38.2,13,36,13z M36,24h-7v-7h7V24z"/>
  <path fill="#F5AF02" d="M46.6,18.3L45,13h-4l-6,22h4l1.4-5.2l0.6-2.3L42.4,22h0l1.2,5.5l0.4,2.3l1,5.2h4L43,13h-4l-1.3,5.3 C37.7,18.3,46.6,18.3,46.6,18.3z"/>
  <path fill="#86B817" d="M29,42c0,0,0-7,10-7c10,0,10,7,10,7H29z"/>
</svg>