<?xml version="1.0" encoding="UTF-8"?>
<svg xmlns="http://www.w3.org/2000/svg" viewBox="0 0 48 48" width="48px" height="48px">
  <path fill="#FC595A" d="M24,4c11,0,20,9,20,20s-9,20-20,20S4,35,4,24S13,4,24,4z"/>
  <path fill="#FFFFFF" d="M31.5,26.7h-3.2l-1.6,6.3H24l1.6-6.3h-3.2V24h4.1l0.6-2.5h-3.2V19h4.1l1.6-6.3h2.6l-1.6,6.3h3.2l1.6-6.3h2.6l-1.6,6.3H40v2.5h-4.1l-0.6,2.5h3.2v2.5h-4.1l-1.6,6.3h-2.6l1.6-6.3h-3.2l-1.6,6.3H24l1.6-6.3h-3.2V24h4.1l0.6-2.5h-3.2V19h4.1l1.6-6.3h2.6l-1.6,6.3h3.2l1.6-6.3h2.6l-1.6,6.3H40v2.5h-4.1l-0.6,2.5h3.2L31.5,26.7z M28.3,24h3.2l0.6-2.5h-3.2L28.3,24z"/>
  <path fill="#FFFFFF" d="M19,24.3c0,0-1.7-0.2-1.7-1.9v-2.1c0,0,0-0.3-0.3-0.3h-1V34h3V24.3z"/>
  <path fill="#FFFFFF" d="M11.3,34V19.9h-1c0,0-0.3,0-0.3,0.3v10.8c0,1.7-1.7,1.9-1.7,1.9V34H11.3z"/>
  <path fill="#FFFFFF" d="M16,14h-3v5.1h1c0,0,0.3,0,0.3-0.3v-2c0-1.8,1.7-1.9,1.7-1.9V14z"/>
  <path fill="#FFFFFF" d="M11.3,14H8.3v0.9c0,0,1.7,0.2,1.7,1.9v2c0,0.3,0.3,0.3,0.3,0.3h1V14z"/>
</svg>