<?xml version="1.0" encoding="UTF-8" standalone="no"?>
<svg width="160" height="48" viewBox="0 0 256 79" xmlns="http://www.w3.org/2000/svg">
  <g fill="none" fill-rule="evenodd">
    <path d="M205.816 5.985l-5.084 9.307h-15.867l5.084-9.307h15.867zm-21.183 17.4l-5.124 9.353h15.87l5.124-9.353h-15.87zm13.7 25.03l5.084-9.308H187.55l-5.084 9.307h15.868zm7.483-42.43h19.78L198.335 56.83h-19.782l27.264-50.846zm-66.6 8.308h20.678l3.892 17.166h-17.13c-1.57 5.386-1.762 10.966-3.332 15.13h17.997l5.515-2.31 4.136 10.387c-12.33 5.006-37.178 6.12-53.63-5.956-8.95-6.598-11.96-21.15-8.314-33.28 5.682-18.906 15.16-22.93 29.936-24.198 4.91-.42 11.96 1.52 16.97 3.83l-4.135 10.386-4.75-2.116c-6.32-1.332-15.547-4.06-19.782 1.518-6.65 8.715-9.818 28.08 4.563 32.323 3.332.95 6.93.95 10.26 0-1.57-7.502-3.895-15.005-5.46-22.507l-11.068.038a262.326 262.326 0 0 1 3.656-10.412zm159.87 33.28h-43.038c3.18-9.023 6.173-18.047 9.353-26.882h-15.87c-9.162 26.125-18.707 53.63-27.868 79.754 7.407-1.52 14.813-3.037 22.032-4.556 3.133-11.33 6.265-22.85 9.4-34.183h16.015c-2.944 11.33-5.894 22.28-8.836 33.42 7.407-1.33 14.813-2.85 22.03-4.182 6.08-14.37 12.14-28.835 16.782-43.37zm-94.47-24.77h-22.03c-6.08 14.37-12.143 28.834-16.78 43.37h43.036c-3.18 9.022-6.174 18.046-9.354 26.88h15.87c9.164-26.123 18.708-53.628 27.87-79.752-7.41 1.52-14.814 3.037-22.033 4.556-3.132 11.33-6.266 22.85-9.4 34.183h-16.014c2.944-11.33 5.892-22.28 8.835-33.42-7.407 1.33-14.813 2.85-22.03 4.182z" fill="#F74747"/>
    <path d="M88.69 56.83H31.522c.95-2.85 1.713-5.7 2.662-8.36h15.248l7.93-23.503H31.522c-7.93 23.504-15.866 46.626-23.796 70.13 7.218-1.52 14.437-3.04 21.51-4.556L38.74 67.22h28.726L55.332 56.83h12.205zm-15.02-23.504L69.768 56.83H49.892l3.89-11.78H38.17c1.57-3.797 2.943-7.88 4.51-11.722h31.087z" fill="#0099E5"/>
    <path d="M3.18 33.327h19.305L0 78.772c3.18-1.52 6.932-2.85 10.113-4.367C15.34 58.73 21.513 44.36 25.857 28.58c-7.028 1.712-14.247 3.417-22.676 4.747z" fill="#0D71B9"/>
  </g>
</svg>