<?xml version="1.0" encoding="UTF-8"?>
<svg xmlns="http://www.w3.org/2000/svg" width="160" height="48" viewBox="0 0 602 182">
  <path d="M374.001 142.002c-34.912 25.728-85.473 39.392-129.025 39.392-61.024 0-115.969-22.528-157.473-60.032-3.264-2.944-.32-6.944 3.584-4.672 44.8 26.048 100.224 41.76 157.472 41.76 38.592 0 80.992-8 120.032-24.64 5.888-2.56 10.816 3.872 5.44 8.192z" fill="#ff9900"/>
  <path d="M388.161 125.762c-4.448-5.76-29.728-2.72-41.12-1.376-3.424.416-3.968-2.592-.864-4.768 20.16-14.208 53.184-10.144 57.024-5.376 3.84 4.8-1.024 37.856-19.84 53.632-2.912 2.432-5.632 1.12-4.352-2.08 4.224-10.56 13.696-34.272 9.152-40.032z" fill="#ff9900"/>
  <path d="M348.961 20.002v-13.76c0-2.08 1.568-3.488 3.488-3.488h61.824c1.984 0 3.584 1.408 3.584 3.488v11.776c-.064 1.984-1.696 4.608-4.672 8.768l-32.032 45.76c11.872-.288 24.416 1.472 35.2 7.584 2.4 1.376 3.072 3.36 3.264 5.344v14.656c0 2.016-2.208 4.384-4.48 3.168-18.752-9.856-43.552-10.912-64.224.096-2.112 1.12-4.32-1.152-4.32-3.168v-13.92c0-2.24.032-6.08 2.272-9.504l37.12-53.152h-32.416c-1.984 0-3.552-1.408-3.552-3.392zm-217.28 76.064h-18.784c-1.792-.128-3.2-1.472-3.328-3.2v-95.392c0-1.92 1.6-3.456 3.584-3.456h17.504c1.824.096 3.264 1.488 3.392 3.264v12.48h.352c4.528-12.128 13.088-17.824 24.608-17.824 11.68 0 19.04 5.696 24.224 17.824 4.512-12.128 14.88-17.824 25.952-17.824 7.872 0 16.48 3.264 21.76 10.56 5.92 8.128 4.704 19.904 4.704 30.304l-.032 60.832c0 1.92-1.6 3.456-3.584 3.456h-18.656c-1.856-.128-3.328-1.632-3.328-3.456v-51.104c0-4.064.352-14.208-.512-18.08-1.376-6.496-5.44-8.32-10.752-8.32-4.448 0-9.088 2.944-10.976 7.68-1.888 4.704-1.728 12.672-1.728 18.72v51.136c0 1.92-1.6 3.456-3.584 3.456h-18.624c-1.856-.128-3.328-1.632-3.328-3.456l-.032-51.104c0-10.752 1.76-26.624-11.552-26.624-13.44 0-12.896 15.424-12.896 26.624v51.104c0 1.92-1.6 3.456-3.584 3.456zm297.984.032h-18.624c-1.856-.128-3.328-1.632-3.328-3.456l-.032-95.04c.128-1.76 1.664-3.104 3.488-3.104h17.344c1.6.096 2.912 1.184 3.264 2.624v14.528h.352c5.216-13.024 12.48-19.232 25.344-19.232 8.352 0 16.48 3.008 21.696 11.264 4.864 7.68 4.864 20.576 4.864 29.856v60.384c-.192 1.536-1.664 2.752-3.488 2.752h-18.816c-1.664-.128-3.072-1.376-3.232-2.752v-52.16c0-10.496 1.216-25.792-11.68-25.792-4.512 0-8.704 3.04-10.784 7.68-2.624 5.856-2.976 11.68-2.976 18.112v51.552c-.064 1.92-1.696 3.456-3.712 3.456zm-176.672-57.44c0 7.264.192 13.376-3.456 19.84-2.944 5.312-7.616 8.576-12.864 8.576-7.136 0-11.328-5.44-11.328-13.44 0-15.808 14.176-18.72 27.648-18.72v3.744zm18.848 45.568c-1.216 1.088-2.976 1.184-4.352.48-6.112-5.088-7.2-7.392-10.624-12.288-10.176 10.368-17.376 13.504-30.624 13.504-15.616 0-27.776-9.6-27.776-28.896 0-15.072 8.192-25.344 19.84-30.368 10.112-4.416 24.224-5.216 35.008-6.4v-2.4c0-4.448.352-9.664-2.272-13.504-2.24-3.456-6.592-4.832-10.4-4.832-7.104 0-13.44 3.616-14.976 11.136-.32 1.664-1.504 3.296-3.168 3.392l-18.112-1.888c-1.536-.352-3.2-1.568-2.784-3.936 4.16-21.824 23.872-28.416 41.536-28.416 9.088 0 20.96 2.4 28.128 9.344 9.088 8.544 8.224 19.904 8.224 32.288v29.216c0 8.768 3.648 12.64 7.072 17.408 1.184 1.664 1.472 3.68-.096 4.896-3.808 3.2-10.592 9.088-14.304 12.384l-.32-.288zm-260.032-1.472v-95.072c.128-1.696 1.44-3.008 3.104-3.008h4.512c2.112 0 3.84 1.568 4.16 3.616l3.168 14.368c6.08-10.048 15.872-18.752 30.944-18.752 15.552 0 26.368 8.384 32.416 26.176 6.848-15.2 18.688-26.176 38.272-26.176 14.592 0 25.152 6.048 31.648 16.448 6.848 10.88 5.536 24.768 5.536 38.688v43.744c0 2.24-1.792 4.032-4.032 4.032h-4.672c-2.24 0-4.032-1.792-4.032-4.032v-41.408c0-10.56.928-25.152-2.24-31.712-3.456-7.2-10.24-9.152-17.248-9.152-16.192 0-23.008 12.416-23.008 30.56v51.744c0 2.24-1.792 4.032-4.032 4.032h-4.672c-2.24 0-4.032-1.792-4.032-4.032v-41.408c0-13.44 2.016-34.72-19.488-34.72-9.504 0-18.496 6.4-22.4 15.84-5.088 12.096-3.968 22.72-3.968 40.32v19.968c0 2.24-1.792 4.032-4.032 4.032h-4.608c-2.208-.032-4-1.856-4-4.096zm-83.072-96.672c2.656 0 4.864 2.208 4.864 4.864 0 2.784-2.208 5.024-4.864 5.024-2.784 0-4.992-2.24-4.992-5.024 0-2.656 2.208-4.864 4.992-4.864zm-2.752 15.456h4.832c2.112 0 3.84 1.728 3.904 3.84v81.088c0 2.24-1.792 4.032-4.032 4.032h-4.48c-2.24 0-4.032-1.792-4.032-4.032v-81.12c.16-2.112 1.856-3.808 3.808-3.808zm501.632 18.176v67.296c.096 1.92-1.984 3.68-3.584 3.68h-7.68c-2.048-.064-3.904-1.76-3.904-3.456v-7.908c-9.088 9.6-22.016 12.864-32.672 12.864-14.816 0-29.472-7.552-29.472-23.52 0-13.632 8.32-21.888 19.68-25.856 17.12-5.984 40.224-3.68 40.224-13.664 0-13.92-11.584-10.976-19.776-9.184-7.552 1.664-12.704 7.232-14.016 9.856-.864 1.632-2.688 1.696-4.032.864l-6.72-4.416c-1.824-1.152-2.368-3.552-1.344-5.28 5.408-9.76 17.984-17.216 33.888-17.216 12.352 0 30.432 5.44 30.432 25.536zm-44.16 41.696c0 7.712 8.64 9.824 16.192 9.824 8.864 0 18.72-3.552 24.896-10.528 2.4-2.784 2.272-6.368 2.272-10.048v-8.352c-17.504 0-43.36-3.456-43.36 19.104z" fill="#221f1f"/>
</svg>