<?xml version="1.0" encoding="UTF-8"?>
<svg xmlns="http://www.w3.org/2000/svg" width="160" height="64" viewBox="0 0 87 35">
  <g fill="none">
    <path d="M0 12.44C0 19.299 4.493 24 13.455 24h11.297V17.55H13.523c-3.801 0-6.147-1.762-6.147-5.152 0-3.39 2.346-5.153 6.147-5.153h3.938V0h-4.006C4.494 0 0 4.7 0 12.44z" fill="#E53238"/>
    <path d="M35.273 0C26.852 0 22.2 4.7 22.2 12c0 7.3 4.651 12 13.073 12 8.422 0 13.094-4.7 13.094-12S43.695 0 35.273 0zm0 17.466c-4.127 0-5.71-2.802-5.71-5.467 0-2.665 1.583-5.466 5.71-5.466 4.127 0 5.71 2.8 5.71 5.466s-1.583 5.467-5.71 5.467z" fill="#0064D2"/>
    <path d="M67.35 7.354h.41v-.41h-.41v.41zm-.752 1.11h.483v-2.01h-.483v2.01zm-.942-2.01c-.724 0-1.186.512-1.186 1.015 0 .576.457 1.016 1.215 1.016.761 0 1.201-.459 1.201-1.016 0-.498-.444-1.016-1.23-1.016zm-.029 1.732h-.024c-.555 0-.996-.403-.996-.717 0-.302.421-.732.976-.732h.02c.532 0 .996.41.996.732 0 .34-.459.717-.972.717zm-2.73-1.732h-.509l-.435.674-.434-.674h-.508l.724 1.046-.774 1.03h.505l.486-.693.485.693h.512l-.773-1.03.721-1.046zm-.512 5.394h5.097a10.99 10.99 0 0 1-.34-.508c-2.192-3.498-2.215-8.066 0-11.549l.34-.508h-5.097V24h10.8c4.147 0 7.694-2.323 7.694-7.046 0-4.724-3.547-7.046-7.693-7.046h-5.8v2.94z" fill="#F5AF02"/>
    <path d="M85.573 23.932H74.79v-6.965h5.83c1.962 0 3.532.85 3.532 2.576 0 1.7-1.526 2.576-3.531 2.576h-.458v1.813h5.41V11.908h-10.85V24h10.85v-.068z" fill="#86B817"/>
  </g>
</svg>