<?xml version="1.0" encoding="UTF-8"?>
<svg xmlns="http://www.w3.org/2000/svg" viewBox="0 0 48 48" width="48px" height="48px">
  <path fill="#F68B1E" d="M43.5,17.5l-4.6-1.4l-1.7-3.3c-0.3-0.7-1-1.1-1.7-1.1H12.6c-0.8,0-1.4,0.4-1.7,1.1l-1.7,3.3L4.5,17.5C4.2,17.6,4,17.8,4,18.1v3c0,0.3,0.2,0.5,0.5,0.5h39c0.3,0,0.5-0.2,0.5-0.5v-3C44,17.8,43.8,17.6,43.5,17.5z"/>
  <path fill="#F68B1E" d="M24,32.9c-4.9,0-8.8-3.9-8.8-8.8c0-1.1,0.9-2,2-2s2,0.9,2,2c0,2.7,2.2,4.8,4.8,4.8s4.8-2.2,4.8-4.8c0-1.1,0.9-2,2-2s2,0.9,2,2C32.8,29,28.9,32.9,24,32.9z"/>
  <path fill="#F68B1E" d="M40.5,35.4H7.5c-0.7,0-1.2-0.7-1-1.3l2.5-8.5c0.1-0.4,0.5-0.7,1-0.7h28.1c0.4,0,0.8,0.3,1,0.7l2.5,8.5C41.7,34.8,41.2,35.4,40.5,35.4z"/>
</svg>