<?xml version="1.0" encoding="UTF-8"?>
<svg width="160" height="48" viewBox="0 0 160 48" xmlns="http://www.w3.org/2000/svg">
  <g fill="none" fill-rule="evenodd">
    <path d="M46.364 10.364c-7.159 0-12.97 5.809-12.97 12.969 0 7.158 5.811 12.969 12.97 12.969 7.16 0 12.97-5.811 12.97-12.97 0-7.159-5.81-12.968-12.97-12.968" fill="#F89022"/>
    <path d="M46.364 10.364c-7.159 0-12.97 5.809-12.97 12.969 0 7.158 5.811 12.969 12.97 12.969 7.16 0 12.97-5.811 12.97-12.97 0-7.159-5.81-12.968-12.97-12.968m-31.455.145H6.182v14.4c0 4.947-1.454 7.855-5.309 9.745l4.219 4.076c5.673-2.71 8.673-6.873 8.673-14.294v-9.928h1.144V10.51zm109.745 15.344c-2.182 2.037-5.637 2.81-8.545 2.81-3.82 0-6.873-1.672-6.873-5.564 0-4.072 3.563-6.399 8.254-6.399 2.473 0 4.946.437 7.164 1.093v8.06zm-21.6-11.781c-2.472-2.219-6.218-3.604-10-3.604-9.452 0-15.67 5.51-15.67 14.472 0 8.8 6.4 14.473 16.218 14.473 5.309 0 10.036-1.927 14.109-5.337l-4.145-3.782c-2.837 1.964-6.037 3.274-9.418 3.274-5.42 0-9.273-3.491-9.273-8.628 0-5.273 3.854-8.764 9.273-8.764 2.255 0 4.655.873 6.4 2.51l2.506-4.614zm33.745-2.837l-10.836 26.182h6.619l1.963-4.873h13.564l1.963 4.873h6.618L166.91 11.236h-9.11zm-7.927 16.4l4.873-12.182 4.872 12.181h-9.745z" fill="#292C3E"/>
    <path d="M59.055 11.236v24.945c0 5.31-3.564 8.473-9.746 8.473v5.673c9.455 0 16.182-4.582 16.182-14.146V11.236h-6.436zm16.181 0v26.181h6.438V11.236h-6.438z" fill="#292C3E"/>
  </g>
</svg>