<?xml version="1.0" encoding="UTF-8"?>
<svg width="160" height="48" viewBox="0 0 160 48" xmlns="http://www.w3.org/2000/svg">
  <g fill="none" fill-rule="evenodd">
    <path d="M80.458 12.048c-6.602 0-11.95 5.35-11.95 11.952 0 6.602 5.348 11.952 11.95 11.952 6.603 0 11.952-5.35 11.952-11.952 0-6.602-5.35-11.952-11.952-11.952" fill="#D1232A"/>
    <path d="M25.54 28.238c-1.002 1.236-2.554 1.918-4.306 1.918-3.09 0-5.644-2.554-5.644-6.156 0-3.604 2.553-6.156 5.644-6.156 1.752 0 3.347.77 4.305 1.916V12.76c-1.374-.686-2.925-1.076-4.305-1.076-6.196 0-10.547 5.171-10.547 12.316 0 7.145 4.35 12.317 10.547 12.317 1.38 0 2.931-.39 4.305-1.076v-7.003zm9.008-3.557h7.05c-.183-2.508-1.893-3.79-3.525-3.79-1.633 0-3.343 1.282-3.525 3.79m7.368 3.743h-7.413c.454 2.418 2.37 3.382 4.215 3.382 1.47 0 2.665-.594 3.754-1.75l2.733 2.824c-1.683 1.82-3.845 2.642-6.577 2.642-5.05 0-8.665-3.292-8.665-8.708 0-5.416 3.615-8.71 8.122-8.71 4.506 0 7.849 3.023 7.849 8.392 0 .498-.073 1.37-.182 1.928h.164zm11.78-13.464h4.397v20.294h-4.397V15.051h.001zm53.818 0h4.397v20.294h-4.397V15.051zm-31.25 16.505c-2.554 0-4.624-2.067-4.624-4.975s2.07-4.977 4.624-4.977c2.553 0 4.623 2.07 4.623 4.977 0 2.908-2.07 4.975-4.623 4.975m0-14.163c-5.598 0-9.02 4.087-9.02 9.188 0 5.099 3.422 9.187 9.02 9.187 5.597 0 9.02-4.088 9.02-9.187 0-5.1-3.423-9.188-9.02-9.188m41.36 14.163c-2.554 0-4.625-2.067-4.625-4.975s2.07-4.977 4.624-4.977c2.553 0 4.623 2.07 4.623 4.977 0 2.908-2.07 4.975-4.623 4.975m0-14.163c-5.598 0-9.02 4.087-9.02 9.188 0 5.099 3.422 9.187 9.02 9.187 5.597 0 9.02-4.088 9.02-9.187 0-5.1-3.423-9.188-9.02-9.188" fill="#2D2929"/>
    <path d="M135.75 13.98l-8.618 21.366h4.744l8.618-21.365h-4.745zm-87.04 9.992L40.13 15h-4.669v20.294h4.397v-14.51l8.578 8.966 8.576-8.966v14.51h4.397V15h-4.67l-8.303 8.973zm40.37 11.374h4.397V15.05h-4.396v20.296z" fill="#2D2929"/>
  </g>
</svg>