<?xml version="1.0" encoding="UTF-8"?>
<svg width="200" height="200" viewBox="0 0 200 200" xmlns="http://www.w3.org/2000/svg">
  <rect x="20" y="60" width="160" height="80" rx="10" fill="#f8f2ff" stroke="#6b21a8" stroke-width="3"/>
  
  <!-- Crown icon -->
  <path d="M70 90 L100 70 L130 90 L120 110 L80 110 Z" fill="#9333ea" stroke="#6b21a8" stroke-width="2"/>
  <path d="M85 110 L85 120 M115 110 L115 120" stroke="#6b21a8" stroke-width="2"/>
  <path d="M80 120 L120 120" stroke="#6b21a8" stroke-width="2"/>
  
  <!-- Text -->
  <text x="100" y="145" font-family="Arial, sans-serif" font-size="12" font-weight="bold" text-anchor="middle" fill="#6b21a8">PREMIUM TIER</text>
  <text x="100" y="160" font-family="Arial, sans-serif" font-size="10" text-anchor="middle" fill="#6b21a8">1 MONTH FREE</text>
  
  <!-- Star decorations -->
  <path d="M40 70 L42 75 L47 75 L43 78 L45 83 L40 80 L35 83 L37 78 L33 75 L38 75 Z" fill="#9333ea"/>
  <path d="M160 70 L162 75 L167 75 L163 78 L165 83 L160 80 L155 83 L157 78 L153 75 L158 75 Z" fill="#9333ea"/>
  <path d="M40 130 L42 135 L47 135 L43 138 L45 143 L40 140 L35 143 L37 138 L33 135 L38 135 Z" fill="#9333ea"/>
  <path d="M160 130 L162 135 L167 135 L163 138 L165 143 L160 140 L155 143 L157 138 L153 135 L158 135 Z" fill="#9333ea"/>
</svg>